<svg xmlns="http://www.w3.org/2000/svg" width="19" height="19" viewBox="0 0 19 19">
    <g fill="none" fill-rule="evenodd">
        <path fill="#D8D8D8" fill-opacity="0" d="M0 0H18V18H0z" transform="rotate(90 9 9.5)"/>
        <path fill="#FFF" fill-rule="nonzero" d="M7.996 13.63c-2.968 3.4-8.308.774-7.982-3.667C.404 4.65 7.547 4.047 8.992 0c1.448 3.948 8.686 4.748 8.98 9.963.25 4.48-4.865 7.09-7.973 3.586L10 16l1.553.776c.274.137.447.418.447.724 0 .276-.224.5-.5.5h-5c-.276 0-.5-.224-.5-.5 0-.306.173-.587.447-.724L8 16c0-.61-.003-1.488-.004-2.37z" transform="rotate(90 9 9.5)"/>
    </g>
</svg>
