<svg xmlns="http://www.w3.org/2000/svg" width="16" height="17" viewBox="0 0 16 17">
    <g fill="none" fill-rule="evenodd">
        <path fill="#D8D8D8" fill-opacity="0" d="M0 0.889H16V16.889H0z"/>
        <path fill="#FFF" fill-rule="nonzero" d="M7.993.889c1.287 3.51 7.721 4.22 7.981 8.856.224 3.982-4.323 6.303-7.086 3.187v2.18l1.381.69c.244.121.398.37.398.642 0 .246-.2.445-.445.445H5.778c-.246 0-.445-.2-.445-.445 0-.272.154-.52.398-.643l1.38-.69c0-.542-.003-1.323-.004-2.107-2.636 3.024-7.384.69-7.094-3.259C.36 5.022 6.708 4.487 7.993.89z"/>
    </g>
</svg>
