<svg xmlns="http://www.w3.org/2000/svg" xmlns:xlink="http://www.w3.org/1999/xlink" width="146" height="33" viewBox="0 0 146 33">
    <defs>
        <path id="prefix__a" d="M16.223 21.82C11.28 31.403.049 28.23.536 18.27.96 9.63 14.172 6.704 16.162.527c-.04.013.177.006.177-.014 1.596 6.177 14.93 8.947 15.568 17.755.721 9.96-11.284 13.172-15.684 3.551z"/>
    </defs>
    <g fill="none" fill-rule="evenodd">
        <g transform="translate(0 -1) translate(.047 .973)">
            <mask id="prefix__b" fill="#fff">
                <use xlink:href="#prefix__a"/>
            </mask>
            <use fill="#000" fill-opacity="0" fill-rule="nonzero" xlink:href="#prefix__a"/>
            <path fill="#FFED2B" d="M30.504 11.039c.004-.002-3.187 7.367-14.404 7.369-11.217.001-18.147-10.54-18.147-10.54s1.23-.88 3.158-2.793c1.3 1.576 6.133 8.763 14.873 8.77 8.258.008 9.224-3.334 14.166-7.367.966 1.196-.734.961.354 4.561z" mask="url(#prefix__b)"/>
            <path fill="#FFED2B" d="M32.624-13.164S30.504 9.285 16.1 9.012C1.696 8.74.078-8.97.786-8.97c.708 0-.76 3.973 1.168 2.06 2.174 2.63 17.407 10.527 29.726.477.966 1.196-.143-10.681.944-6.73z" mask="url(#prefix__b)"/>
            <g fill="#FFED2B" mask="url(#prefix__b)">
                <g>
                    <path d="M17.677 9.148c.121 0 .178.19.208.225 2.995 3.406 15.348 3.42 15.348-8.737.708-.234 1.237 3.94 1.587 12.524-7.196 3.812-12.683 3.964-16.46.456-.708-1.403-1.048-3.495-.683-4.468z" transform="translate(-1.515 11.806)"/>
                    <path d="M17.677 9.148C14.844 12.656 2.066 12.793 2.066.514 1.358.281.829 4.455.479 13.04c7.196 3.812 12.683 3.964 16.46.456.708-1.404 1.224-3.253.738-4.347z" transform="translate(-1.515 11.806)"/>
                </g>
            </g>
        </g>
        <path fill="#FFED2B" fill-rule="nonzero" d="M15.358 23.821c-.105 3.726-.437 6.214-.998 7.465l-3.428.757-.262 1.326h11.078l-.144-1.327-3.735-.782c-.347-1.417-.548-3.9-.601-7.448-.003-.138-.306-.465-.91-.98-.662.512-.996.841-1 .99zM51.908 5.881l-5.223 14.81h-.062l-2.27-7.84-2.362-7.343h-3.762v.529l7.213 21.407h1.99l5.254-13.97h.062l5.254 13.97h1.865l7.244-21.407v-.53h-3.824l-2.3 7.344-2.177 7.81h-.062L53.525 5.88h-1.617zm17.815 1.774c0 1.369 1.057 2.022 2.083 2.022.994 0 1.99-.684 1.99-2.022 0-1.307-.996-1.992-2.022-1.992-1.025 0-2.051.654-2.051 1.992zm3.73 4.791h-3.388v14.842h3.388V12.446zm3.234 1.96c1.552-.131 1.724.294 1.74 1.635v11.247h3.39v-8.712c0-2.427 1.678-3.89 3.792-3.89 2.021 0 3.576 1.432 3.576 3.797v5.352c0 3.578 2.238 3.951 5.098 3.391V25.08c-1.46.156-1.74-.249-1.74-1.369v-5.352c.093-3.734-1.866-6.41-5.939-6.41-2.114 0-4.041.872-5.005 2.77 0-2.49-2.55-3.08-4.943-2.49l.03 2.179zm23.69 5.508c0-2.271 1.119-5.01 3.824-5.01 2.524 0 4.032 1.861 4.045 4.712l-.004.298c-.03 3.36-1.896 4.978-4.725 4.978-.995 0-2.052-.248-3.14-.653v-4.325zm-3.327 6.379c1.959.84 4.01 1.4 6.156 1.4 4.632.093 8.332-2.303 8.487-7.779.094-5.414-3.264-7.872-6.59-7.872-2.332 0-3.825.964-4.913 2.8V4.73h-3.14v21.563zm30.934-2.552c-1.337.623-3.202 1.12-4.943 1.12-3.295.094-5.627-1.587-5.534-4.698 1.4.84 3.389 1.338 5.348 1.245 2.86-.094 5.627-1.463 5.782-4.45.156-3.703-3.45-5.134-6.715-5.04-3.883.09-7.35 2.492-7.604 7.116l-.013.351c-.249 5.29 3.202 8.339 8.518 8.183 1.866-.093 3.607-.31 5.255-1.15l-.094-2.677zm-10.228-5.85c.497-2.24 2.114-3.267 4.197-3.298 1.523 0 3.513.56 3.42 2.334-.093 1.556-1.803 2.147-3.14 2.147-1.555 0-3.358-.405-4.477-1.182zm27.079 5.85c-1.337.623-3.202 1.12-4.943 1.12-3.296.094-5.628-1.587-5.534-4.698 1.399.84 3.388 1.338 5.347 1.245 2.86-.094 5.627-1.463 5.783-4.45.155-3.703-3.451-5.134-6.716-5.04-3.882.09-7.35 2.492-7.604 7.116l-.013.351c-.248 5.29 3.203 8.339 8.519 8.183 1.865-.093 3.606-.31 5.254-1.15l-.093-2.677zm-10.229-5.85c.498-2.24 2.114-3.267 4.197-3.298 1.524 0 3.514.56 3.42 2.334-.093 1.556-1.803 2.147-3.14 2.147-1.554 0-3.357-.405-4.477-1.182z" transform="translate(0 -1)"/>
    </g>
</svg>
