<svg width="149" height="111" viewBox="0 0 149 111" xmlns="http://www.w3.org/2000/svg"><title>1 месяц</title><g fill="none" fill-rule="evenodd"><path fill="#D0EFFF" d="M26.5 100h15V89h-15zM106 8.5a6 6 0 0 0-6 6v30h33a3 3 0 0 0 3-3v-33h-30zM62.5 100h15V73h-15zM98.5 100h15V57h-15zM35.726 75.046l2.12 2.121 5.482-5.48-2.122-2.12z"/><path fill="#2196F3" d="M120.963 38h12.075v-3h-12.075z"/><g fill="#2196F3"><path d="M25 110.159h57.5v-3H25zM95 110.159h17.5v-3H95zM138.5 42.5c0 2.48-2.019 4.5-4.5 4.5h-28a4.505 4.505 0 0 1-4.5-4.5v-28c0-2.481 2.019-4.5 4.5-4.5h28c2.481 0 4.5 2.019 4.5 4.5v28zM47.5 97h9V84h-9v13zm36 0h9V68h-9v29zM134 7h-28c-4.136 0-7.5 3.364-7.5 7.5V27H23a4.505 4.505 0 0 0-4.5 4.5V97H0v3h140v-3H95.5V65h-15v32h-21V81h-15v16h-23V40H92v-3H21.5v-5.5c0-.827.673-1.5 1.5-1.5h75.5v12.5c0 4.136 3.364 7.5 7.5 7.5h12.5v28.5h3V50H134c4.136 0 7.5-3.364 7.5-7.5v-28c0-4.136-3.364-7.5-7.5-7.5z"/><path d="M126.038 30c-.827 0-1.5-.673-1.5-1.5s.673-1.5 1.5-1.5 1.5.673 1.5 1.5-.673 1.5-1.5 1.5m0-6c-1.953 0-3.603 1.258-4.224 3h-15.35v3h15.35c.621 1.742 2.271 3 4.224 3 1.953 0 3.603-1.258 4.224-3h2.776v-3h-2.776c-.62-1.742-2.27-3-4.224-3M114.038 22c-.827 0-1.5-.673-1.5-1.5s.673-1.5 1.5-1.5 1.5.673 1.5 1.5-.673 1.5-1.5 1.5m0-6c-1.953 0-3.603 1.258-4.224 3h-3.35v3h3.35c.621 1.742 2.271 3 4.224 3 1.953 0 3.603-1.258 4.224-3h14.776v-3h-14.776c-.62-1.742-2.27-3-4.224-3M116.963 38c-.827 0-1.5-.673-1.5-1.5s.673-1.5 1.5-1.5 1.5.673 1.5 1.5-.673 1.5-1.5 1.5m0-6c-1.953 0-3.603 1.258-4.224 3h-6.276v3h6.276c.62 1.742 2.27 3 4.224 3 2.48 0 4.5-2.02 4.5-4.5 0-2.481-2.02-4.5-4.5-4.5M65.5 60.045V47.393H52.848v3h7.531L46.043 64.73l2.121 2.121L62.5 52.514v7.531zM118.5 92.5h3v-8h-3zM27 35h3v-3h-3zM33 35h3v-3h-3zM39 35h3v-3h-3zM137 0h-24v3h24c4.687 0 8.5 3.813 8.5 8.5v14h3v-14C148.5 5.159 143.341 0 137 0"/></g></g></svg>