<svg width="80" height="31" viewBox="0 0 80 31" xmlns="http://www.w3.org/2000/svg" xmlns:xlink="http://www.w3.org/1999/xlink"><title>Page 1</title><defs><path id="a" d="M79.206.157V31H0V.157z"/></defs><g fill="none" fill-rule="evenodd"><path fill="#D0EFFF" d="M35.062 3h-6.414V0h6.414zM59.894 3h-6.415V0h6.415zM47.479 3h-6.416V0h6.416z"/><g transform="matrix(-1 0 0 1 80 -.157)"><mask id="b" fill="#fff"><use xlink:href="#a"/></mask><path d="M71.706.157H58.04v3h13.667c2.481 0 4.5 2.02 4.5 4.5v10c0 2.481-2.019 4.5-4.5 4.5H5.742l3.722-3.722-2.12-2.12L0 23.656 7.343 31l2.121-2.12-3.722-3.723h65.964c4.136 0 7.5-3.364 7.5-7.5v-10c0-4.136-3.364-7.5-7.5-7.5" fill="#D0EFFF" mask="url(#b)"/></g></g></svg>