<svg width="147" height="108" viewBox="0 0 147 108" xmlns="http://www.w3.org/2000/svg"><title>3-4 месяца</title><g fill="none" fill-rule="evenodd"><path fill="#D0EFFF" d="M103.619 19.834h26.487v-9.75h-26.487zM103.619 36.042h26.487v-9.75h-26.487zM103.619 51.042h26.487v-9.75h-26.487zM44.041 56.589h11v-11h-11zM28.898 86.589h11v-11h-11zM59.041 71.589h11v-26h-11zM44.041 86.589h11v-11h-11zM104.185 86.589h11v-11h-11z"/><path fill="#2196F3" d="M26.25 107.361h57.5v-3h-57.5zM96.25 107.361h17.501v-3H96.25zM27 32.202h3v-3h-3zM33 32.202h3v-3h-3zM39 32.202h3v-3h-3z"/><g fill="#2196F3"><path d="M105.119 34.167h29.97v-7h-29.97v7zm0-16.167h29.97v-7h-29.97v7zm0 32h29.97v-7h-29.97v7zM121.5 60.702h-3v33.5h-97v-57H97v-3H21.5v-5.5c0-.827.673-1.5 1.5-1.5h79.119v9.965h16.485V40h-16.485v13h35.97V40h-16.485v-2.833h16.485v-13h-16.485V21h16.485V8h-35.97v13h16.485v3.167h-16.485v.035H23a4.505 4.505 0 0 0-4.5 4.5v65.5H0v3h140v-3h-18.5v-33.5z"/><path d="M107.619 32.167h6v-3h-6zM107.619 16h6v-3h-6zM107.619 48h6v-3h-6zM122.103 0v3h20.986v36.47h3V0zM78.286 50.454h10.065l-2.49 2.49 2.12 2.122 6.113-6.112-6.113-6.112-2.12 2.12 2.49 2.492H78.286zM111.151 64.454H83.836l2.491-2.491-2.12-2.121-6.114 6.112 6.113 6.112 2.121-2.121-2.49-2.491h27.314zM31.898 53.589h5v-5h-5v5zm-3 3h11v-11h-11v11zM31.898 68.589h20.143v-5H31.898v5zm-3 3h26.143v-11H28.898v11zM62.041 83.589h35.144v-5H62.041v5zm-3 3h41.144v-11H59.041v11z"/></g></g></svg>