<svg width="22" height="22" viewBox="0 0 22 22" xmlns="http://www.w3.org/2000/svg"><title>Page 1</title><path d="M16.6 9.585a17.694 17.694 0 0 0-.37-2.818 11.26 11.26 0 0 0 1.607-.757 8.522 8.522 0 0 1 1.27 3.575h-2.506zm-.447 5.192c.237-.991.39-2.063.448-3.192h2.507a8.532 8.532 0 0 1-1.457 3.867c-.466-.254-.97-.476-1.498-.675zm-.603 1.908c.25.097.49.202.724.314a8.66 8.66 0 0 1-1.323.967c.218-.398.419-.825.599-1.281zm-9.928 0c.18.456.38.883.6 1.281a8.515 8.515 0 0 1-1.323-.967c.23-.112.473-.217.723-.314zm-1.051-5.1c.057 1.129.21 2.201.448 3.192a11.76 11.76 0 0 0-1.497.676 8.525 8.525 0 0 1-1.458-3.868H4.57zm.37-4.818a17.679 17.679 0 0 0-.37 2.818H2.064a8.508 8.508 0 0 1 1.27-3.575c.496.285 1.036.537 1.607.757zm.55-1.933a9.246 9.246 0 0 1-.874-.406 8.596 8.596 0 0 1 1.605-1.223 11.499 11.499 0 0 0-.731 1.629zm9.46-1.629c.58.346 1.12.753 1.602 1.221a9.37 9.37 0 0 1-.874.402 11.58 11.58 0 0 0-.728-1.623zm-3.365 2.521V2.314c.825.498 1.61 1.584 2.179 3.1a14.64 14.64 0 0 1-2.18.312zm0 3.859V7.726a16.534 16.534 0 0 0 2.725-.383c.142.698.243 1.445.288 2.242h-3.013zm0 4.257v-2.257h3.013a15.586 15.586 0 0 1-.37 2.625 16.677 16.677 0 0 0-2.643-.368zm0 2c.703.045 1.385.141 2.039.277-.553 1.329-1.281 2.28-2.04 2.738v-3.015zm-2 0v3.016c-.757-.459-1.485-1.41-2.04-2.739a14.616 14.616 0 0 1 2.04-.277zm0-4.257v2.257c-.911.052-1.797.18-2.643.368a15.385 15.385 0 0 1-.37-2.625h3.013zm0-3.859v1.859H6.573a15.64 15.64 0 0 1 .288-2.242c.869.198 1.783.329 2.725.383zm0-1.999a14.684 14.684 0 0 1-2.182-.306c.569-1.52 1.356-2.608 2.182-3.108v3.414zm1-5.727C4.749 0 0 4.748 0 10.585c0 5.837 4.749 10.586 10.586 10.586 5.837 0 10.585-4.749 10.585-10.586C21.17 4.748 16.423 0 10.586 0z" fill="#2196F3" fill-rule="evenodd"/></svg>