<svg width="19" height="22" viewBox="0 0 19 22" xmlns="http://www.w3.org/2000/svg"><title>Page 1</title><g fill="#2196F3" fill-rule="evenodd"><path d="M7.557 19.878a9.725 9.725 0 0 1-4.829-5.122 9.735 9.735 0 0 1 .033-7.494 9.705 9.705 0 0 1 4.853-5.07L9.03 3.68 6.726 5.414l-.104-.137a.999.999 0 0 0-.786-.397c-.29.032-.603.138-.796.379a9.328 9.328 0 0 0-1.288 2.184 9.285 9.285 0 0 0 1.49 9.64.999.999 0 0 0 1.336.173l.45-.315 2.334 1.886-1.805 1.05zm.142-4.966a1 1 0 0 0-1.204-.041l-.273.192a7.294 7.294 0 0 1-.326-7.475.997.997 0 0 0 1.235.025l3.997-3.011a1.003 1.003 0 0 0 .123-1.489L8.583.31A1.004 1.004 0 0 0 7.495.068a11.698 11.698 0 0 0-6.578 6.42c-2.514 5.996.318 12.92 6.313 15.434a.996.996 0 0 0 .889-.058l3.503-2.038a1 1 0 0 0 .126-1.641L7.7 14.912z"/><path d="M9.293 14.7a.984.984 0 0 0 1.412 0A4.55 4.55 0 0 0 12 11.5a4.55 4.55 0 0 0-1.295-3.2.983.983 0 0 0-1.412 0c-.39.399-.39 1.046 0 1.445.457.469.71 1.093.71 1.754 0 .664-.253 1.287-.71 1.755-.39.4-.39 1.046 0 1.446"/><path d="M13.908 6.305a1.176 1.176 0 0 0-1.58 0 .988.988 0 0 0 0 1.47c.926.861 1.437 2.008 1.437 3.226s-.51 2.363-1.436 3.225a.988.988 0 0 0 0 1.47c.218.202.504.304.79.304.286 0 .572-.102.79-.305C15.258 14.442 16 12.775 16 11.001s-.743-3.442-2.092-4.696"/><path d="M16.627 5.302a.902.902 0 0 0-1.348 0 1.09 1.09 0 0 0 0 1.458c1.17 1.267 1.815 2.95 1.815 4.741 0 1.79-.644 3.474-1.814 4.739a1.09 1.09 0 0 0 0 1.458c.186.202.43.302.674.302.244 0 .488-.1.674-.302C18.158 16.043 19 13.842 19 11.5s-.843-4.544-2.373-6.199"/></g></svg>