<svg xmlns="http://www.w3.org/2000/svg" xmlns:xlink="http://www.w3.org/1999/xlink" width="0" height="0" style="position:absolute">
	
		<symbol id="facebook" viewBox="0 0 80 80">
			<g fill="none" fill-rule="evenodd"><circle cx="40" cy="40" r="40" fill="#39589B"></circle><path fill="#FFF" fill-rule="nonzero" d="M41 56V42h6l1-6h-7v-3c0-2 1.002-3 3-3h3v-6h-5c-5 0-7 3-7 8v4h-6v6h6v14h6z"></path></g>
		</symbol>
	
		<symbol id="instagram" viewBox="0 0 80 80">
			<g fill="none" fill-rule="evenodd"><circle cx="40" cy="40" r="40" fill="#D13496"></circle><g fill="#FFF" fill-rule="nonzero" transform="translate(24 24)"><path d="M22.222 0H9.778C4.378 0 0 4.378 0 9.778v12.444C0 27.622 4.378 32 9.778 32h12.444A9.778 9.778 0 0 0 32 22.222V9.778C32 4.378 27.622 0 22.222 0zm7.111 22.222a7.118 7.118 0 0 1-7.11 7.111H9.777a7.118 7.118 0 0 1-7.111-7.11V9.777a7.118 7.118 0 0 1 7.11-7.111h12.445a7.118 7.118 0 0 1 7.111 7.11v12.445z"></path><path d="M16 8a8 8 0 1 0 0 16 8 8 0 0 0 0-16zm0 13.333c-2.946 0-5.333-2.387-5.333-5.333s2.387-5.333 5.333-5.333a5.332 5.332 0 1 1 0 10.666z"></path><circle cx="24.356" cy="7.644" r="1.778"></circle></g></g>
		</symbol>
	
		<symbol id="spades" viewBox="0 0 19 19">
			<g fill="none" fill-rule="evenodd"><path fill="none" d="M18 1v18H0V1z"></path><path fill="#2F2149" fill-rule="nonzero" d="M4.37 8.996C.97 6.028 3.596.688 8.037 1.014c5.313.39 5.916 7.533 9.963 8.978-3.948 1.448-4.748 8.686-9.963 8.98-4.48.25-7.09-4.865-3.586-7.973L2 11l-.776 1.553A.81.81 0 0 1 .5 13a.5.5 0 0 1-.5-.5v-5A.5.5 0 0 1 .5 7a.81.81 0 0 1 .724.447L2 9c.61 0 1.488-.003 2.37-.004z"></path></g>
		</symbol>
	
		<symbol id="telegram" viewBox="0 0 80 80">
			<g fill="none" fill-rule="evenodd"><circle cx="40" cy="40" r="40" fill="#1E96C8"></circle><path fill="#FFF" d="M40.109 47.726c-1.304 1.291-2.596 2.561-3.876 3.84-.448.449-.95.697-1.593.662-.439-.023-.684-.22-.818-.642-.981-3.096-1.976-6.183-2.952-9.282-.095-.3-.235-.446-.534-.54a630.87 630.87 0 0 1-6.92-2.197 3.903 3.903 0 0 1-1.017-.476c-.473-.326-.542-.857-.118-1.24.392-.352.86-.66 1.346-.856 2.824-1.138 5.664-2.24 8.498-3.35l21.585-8.472c1.368-.538 2.42.22 2.277 1.724-.09.962-.336 1.909-.534 2.859-1.562 7.5-3.126 15.003-4.696 22.502-.374 1.78-1.603 2.246-3.044 1.165-2.414-1.809-4.826-3.624-7.238-5.436-.115-.085-.234-.167-.366-.26zm-5.418 2.278l.081-.022c.015-.07.037-.14.043-.209.155-1.7.32-3.4.454-5.103.03-.38.158-.649.438-.904 2.225-2.023 4.437-4.06 6.652-6.09 2.453-2.25 4.907-4.497 7.35-6.756.152-.14.215-.376.319-.57-.23-.024-.477-.118-.686-.063-.285.075-.555.243-.81.406-5.413 3.467-10.822 6.94-16.239 10.4-.306.196-.363.362-.247.704.4 1.166.763 2.344 1.14 3.518l1.505 4.69z"></path></g>
		</symbol>
	
		<symbol id="twitter" viewBox="0 0 80 80">
			<g fill="none" fill-rule="evenodd"><circle cx="40" cy="40" r="40" fill="#26AAE1"></circle><path fill="#FFF" fill-rule="nonzero" d="M56.24 31.005c-1.148.51-2.384.855-3.681 1.01a6.427 6.427 0 0 0 2.818-3.547 12.84 12.84 0 0 1-4.07 1.556A6.407 6.407 0 0 0 46.629 28a6.41 6.41 0 0 0-6.409 6.41c0 .5.057.99.166 1.46a18.194 18.194 0 0 1-13.21-6.697 6.364 6.364 0 0 0-.868 3.223 6.404 6.404 0 0 0 2.85 5.334 6.379 6.379 0 0 1-2.902-.802l-.001.081a6.416 6.416 0 0 0 5.142 6.285 6.441 6.441 0 0 1-2.895.109 6.414 6.414 0 0 0 5.987 4.45 12.856 12.856 0 0 1-7.96 2.745c-.517 0-1.027-.03-1.529-.09a18.132 18.132 0 0 0 9.825 2.88c11.79 0 18.235-9.766 18.235-18.236 0-.278-.005-.555-.017-.83a12.995 12.995 0 0 0 3.197-3.317z"></path></g>
		</symbol>
	
		<symbol id="vk" viewBox="0 0 80 80">
			<g fill="none" fill-rule="evenodd"><circle cx="40" cy="40" r="40" fill="#356396"></circle><path fill="#FFF" fill-rule="nonzero" d="M54.922 31.684H49.38c-.46 0-.884.254-1.102.66 0 0-2.21 4.07-2.92 5.441-1.91 3.689-3.147 2.53-3.147.819v-5.902a1.86 1.86 0 0 0-1.86-1.86h-4.167a3.336 3.336 0 0 0-2.949 1.369s2.116-.343 2.116 2.508c0 .707.036 2.74.07 4.447a1.229 1.229 0 0 1-2.145.849 36.281 36.281 0 0 1-4.207-7.652 1.168 1.168 0 0 0-1.062-.679h-5.035a.855.855 0 0 0-.808 1.154c1.53 4.193 8.115 17.373 15.632 17.373h3.165c.69 0 1.25-.56 1.25-1.25V47.05a1.226 1.226 0 1 1 2.069-.895l3.787 3.558c.34.32.79.498 1.256.498h4.973c2.399 0 2.399-1.665 1.09-2.953-.92-.906-4.24-4.407-4.24-4.407a1.715 1.715 0 0 1-.132-2.229c1.073-1.412 2.829-3.725 3.573-4.715 1.018-1.354 2.86-4.223.335-4.223z"></path></g>
		</symbol>
	
</svg>
